<?xml version="1.0" standalone="no"?>
<!DOCTYPE svg PUBLIC "-//W3C//DTD SVG 20010904//EN"
 "http://www.w3.org/TR/2001/REC-SVG-20010904/DTD/svg10.dtd">
<svg version="1.0" xmlns="http://www.w3.org/2000/svg"
 width="369.000000pt" height="300.000000pt" viewBox="0 0 369.000000 300.000000"
 preserveAspectRatio="xMidYMid meet">

<g transform="translate(0.000000,300.000000) scale(0.100000,-0.100000)"
fill="#000000" stroke="none">
<path d="M1970 2996 c0 -3 48 -37 106 -76 491 -327 837 -834 948 -1393 45
-224 60 -500 32 -556 -8 -15 -51 -62 -96 -104 -317 -298 -655 -437 -1064 -437
-187 0 -345 21 -501 66 -45 13 18 -29 270 -178 346 -205 373 -220 385 -213 8
5 110 -40 110 -49 0 -2 -12 -1 -27 1 l-28 4 25 -14 c45 -26 142 -41 260 -41
96 1 128 5 195 27 181 60 300 160 419 353 94 152 320 504 488 761 129 196 157
259 183 411 69 397 -122 817 -468 1029 -36 22 -235 91 -631 218 -319 103 -585
189 -593 192 -7 3 -13 3 -13 -1z m286 -118 c69 -25 146 -81 120 -86 -22 -5
-149 57 -191 93 -29 25 -29 26 -5 19 14 -4 48 -15 76 -26z m225 -155 c26 -14
64 -43 85 -64 37 -38 38 -39 13 -39 -40 0 -120 45 -169 95 l-45 45 35 -6 c19
-4 56 -18 81 -31z m652 -120 c27 -13 47 -27 44 -30 -10 -9 -111 26 -137 48
l-25 20 35 -7 c19 -3 57 -17 83 -31z m-488 -42 c23 -10 60 -40 84 -67 l43 -49
-32 -3 c-56 -6 -77 6 -129 73 -47 59 -49 65 -29 65 13 0 41 -9 63 -19z m594
-39 c68 -34 80 -56 25 -46 -50 9 -83 26 -114 59 l-25 27 30 -7 c17 -4 54 -19
84 -33z m98 -91 c23 -11 46 -29 53 -40 10 -19 8 -21 -20 -21 -38 0 -77 19
-109 54 l-24 26 29 0 c16 0 48 -9 71 -19z m-473 -115 c25 -36 46 -69 46 -75 0
-6 -17 -11 -38 -11 -42 0 -61 16 -120 103 l-33 47 50 0 c49 0 49 0 95 -64z
m553 14 c24 -9 63 -54 63 -74 0 -11 -76 -6 -92 7 -9 6 -23 24 -32 39 -13 20
-14 27 -4 31 20 8 33 8 65 -3z m116 -157 c17 -44 10 -53 -40 -53 -34 0 -53 20
-68 68 -6 21 -4 22 43 22 48 0 50 -1 65 -37z m-539 -78 c22 -41 38 -77 35 -79
-2 -2 -23 -7 -46 -11 l-42 -7 -37 77 c-40 84 -38 95 21 95 27 0 34 -7 69 -75z
m589 -41 c10 -19 14 -40 11 -46 -7 -10 -74 -42 -79 -36 -1 2 -9 24 -18 49
l-15 47 32 10 c48 15 51 14 69 -24z m42 -134 c8 -36 -7 -65 -44 -85 -27 -14
-29 -13 -35 8 -3 12 -6 37 -6 55 0 28 5 35 32 47 39 16 45 13 53 -25z m-569
22 c6 -4 20 -32 32 -62 11 -30 23 -63 27 -72 5 -13 -2 -21 -30 -32 -21 -9 -41
-16 -45 -16 -9 0 -65 159 -58 165 4 4 50 23 58 24 3 0 10 -3 16 -7z m589 -151
c8 -36 -14 -81 -48 -104 -24 -16 -25 -15 -30 19 -7 44 5 77 35 98 31 22 35 20
43 -13z m-501 -88 c3 -10 10 -47 17 -82 l12 -64 -29 -24 c-16 -12 -34 -23 -40
-23 -8 0 -44 131 -44 163 0 8 60 47 72 47 4 0 9 -8 12 -17z m506 -59 c0 -32
-21 -73 -54 -103 l-26 -24 0 46 c0 38 6 53 31 82 34 38 49 38 49 -1z m-19
-151 c-12 -45 -72 -134 -78 -116 -8 23 17 89 48 126 17 21 33 36 36 34 2 -3 0
-23 -6 -44z m-437 -59 c12 -91 8 -117 -25 -157 -18 -21 -35 -35 -40 -30 -4 4
-11 45 -15 90 l-7 83 33 30 c18 16 36 30 40 30 4 0 10 -21 14 -46z m389 -106
c-17 -35 -40 -74 -51 -88 l-21 -25 8 31 c14 49 79 159 89 150 2 -3 -9 -33 -25
-68z m-383 -173 c0 -72 -16 -120 -49 -149 l-21 -19 0 90 c0 82 2 93 25 117 37
40 45 33 45 -39z m-21 -245 c-10 -64 -48 -149 -77 -173 -13 -10 -15 -5 -9 45
6 63 37 141 69 175 12 13 23 22 24 20 2 -2 -1 -32 -7 -67z m-119 -29 c0 -18
-10 -42 -25 -58 l-24 -28 -1 31 c0 26 31 84 46 84 2 0 4 -13 4 -29z m-105
-137 c-9 -17 -30 -41 -46 -53 l-29 -22 0 31 c0 22 12 43 43 77 40 43 42 45 46
22 1 -13 -5 -38 -14 -55z m168 -76 c-18 -62 -52 -133 -81 -168 l-21 -25 9 41
c5 23 14 54 20 70 15 39 72 134 82 134 4 0 0 -24 -9 -52z m-288 -10 c-9 -41
-20 -55 -58 -75 -25 -12 -31 -13 -38 -1 -16 24 -9 37 37 73 58 43 68 44 59 3z
m-145 -97 c0 -42 -77 -99 -100 -74 -25 25 -14 48 35 75 28 15 53 28 58 28 4 0
7 -13 7 -29z m-152 -101 c-2 -8 -25 -23 -53 -33 -47 -17 -50 -17 -62 -1 -22
30 -15 41 40 62 48 18 53 19 65 4 7 -9 11 -23 10 -32z m-960 -35 c28 -9 64
-27 79 -40 l28 -25 -55 21 c-134 51 -166 77 -52 44z m791 -7 c7 -18 4 -26 -13
-35 -34 -20 -90 -16 -111 7 -21 23 -21 23 25 37 60 19 90 16 99 -9z m576 -73
c-11 -30 -23 -55 -27 -55 -11 0 -11 1 13 64 28 72 38 64 14 -9z m-1122 27 c15
-9 27 -20 27 -24 0 -22 -102 3 -141 34 l-24 19 55 -7 c30 -3 67 -13 83 -22z
m366 11 c23 -15 23 -17 6 -30 -29 -20 -88 -16 -121 9 l-28 22 25 7 c44 13 94
9 118 -8z m-176 -21 c22 -24 13 -32 -32 -32 -32 0 -101 31 -101 45 0 3 26 5
58 5 44 0 63 -5 75 -18z m887 -65 c0 -24 -33 -67 -50 -67 -15 0 -12 27 5 60
19 36 45 40 45 7z m-80 -66 c0 -32 -22 -61 -46 -61 -15 0 -19 37 -6 56 6 9 41
33 50 34 1 0 2 -13 2 -29z m-84 -58 c8 -29 -17 -56 -46 -51 -25 5 -24 44 2 62
31 22 37 20 44 -11z m-92 -39 c11 -30 6 -42 -23 -52 -25 -9 -30 -7 -40 14 -15
33 -15 33 12 44 33 13 44 12 51 -6z m-95 -46 c15 -40 -49 -56 -69 -18 -15 27
-5 40 31 40 22 0 32 -6 38 -22z m-309 -34 l25 -25 -30 7 c-30 7 -85 40 -85 51
0 14 68 -10 90 -33z m206 15 c16 -17 16 -22 4 -29 -24 -16 -45 -11 -69 14 -17
18 -19 25 -9 29 28 11 56 6 74 -14z m-108 -5 c12 -8 22 -19 22 -25 0 -18 -56
-8 -85 16 l-30 24 35 1 c20 0 46 -7 58 -16z"/>
<path d="M1230 2781 c-116 -5 -153 -10 -185 -26 -65 -32 -108 -85 -153 -192
-23 -54 -51 -112 -61 -130 l-20 -32 -263 -3 c-261 -3 -263 -3 -320 -30 -117
-54 -194 -158 -219 -292 -6 -34 -9 -268 -7 -628 3 -564 3 -574 25 -627 32 -78
68 -125 126 -165 110 -74 58 -70 1062 -73 524 -1 891 2 879 7 -30 12 -247 26
-834 55 -677 34 -786 41 -847 60 -113 34 -184 122 -203 251 -5 38 -10 250 -10
472 l0 402 320 0 c272 0 326 2 360 16 28 11 40 22 38 33 -3 14 -40 16 -362 19
l-359 2 7 82 c9 110 32 160 88 190 42 22 53 23 345 28 181 3 306 9 312 15 5 6
35 66 66 135 91 200 94 206 121 218 18 9 156 12 474 12 l449 0 25 -22 c13 -13
50 -79 81 -148 30 -69 66 -143 78 -165 l23 -40 224 -2 c243 -2 247 0 76 43
-55 14 -107 31 -114 37 -14 11 -33 51 -128 262 -57 126 -93 173 -159 208 -34
18 -65 22 -220 28 -201 8 -496 8 -715 0z"/>
<path d="M1198 2524 c-36 -19 -35 -30 2 -49 25 -13 84 -15 416 -13 356 3 388
4 398 21 8 12 8 22 0 35 -10 16 -42 17 -400 19 -330 2 -393 0 -416 -13z"/>
<path d="M1445 2175 c-38 -9 -113 -36 -165 -62 -81 -39 -108 -59 -185 -137
-152 -153 -212 -308 -202 -519 8 -187 71 -328 203 -461 128 -128 275 -193 459
-203 202 -11 377 58 525 207 94 94 155 197 187 320 28 103 23 273 -10 375 -37
113 -90 198 -177 285 -133 133 -280 198 -465 206 -67 2 -123 -1 -170 -11z
m299 -80 c197 -51 357 -199 434 -403 23 -60 26 -82 27 -202 0 -117 -3 -144
-23 -200 -66 -181 -198 -317 -378 -387 -56 -21 -91 -27 -184 -31 -142 -5 -205
7 -313 60 -263 131 -401 444 -321 728 57 203 238 381 444 434 74 20 241 20
314 1z"/>
<path d="M1470 2058 c-65 -18 -50 -23 59 -20 125 4 200 -11 299 -59 155 -75
276 -229 322 -408 9 -32 9 -30 5 16 -12 123 -69 228 -177 328 -78 72 -160 116
-259 140 -72 16 -196 18 -249 3z"/>
<path d="M1449 1861 c-26 -10 -74 -37 -106 -60 -77 -54 -110 -63 -180 -50 -77
14 -96 4 -124 -68 -16 -43 -23 -86 -27 -163 -7 -182 39 -301 168 -431 57 -58
94 -85 152 -113 216 -104 446 -84 610 53 69 57 168 179 168 206 0 4 -28 36
-62 72 l-63 65 -6 96 c-7 117 -27 181 -77 246 -102 135 -311 202 -453 147z
m273 -68 c65 -30 133 -95 165 -162 37 -75 40 -200 6 -273 -29 -63 -96 -134
-158 -166 -44 -23 -62 -27 -145 -27 -81 0 -102 4 -145 24 -186 92 -245 321
-126 494 82 120 266 170 403 110z"/>
<path d="M1511 1623 c-38 -19 -68 -62 -77 -110 -13 -69 42 -153 113 -172 108
-30 231 85 194 182 -11 29 -17 31 -74 18 -44 -11 -63 4 -83 62 -13 38 -28 42
-73 20z"/>
<path d="M374 2119 c-28 -31 -26 -102 4 -131 21 -22 31 -23 148 -23 146 0 154
4 154 90 0 79 -11 85 -162 85 -114 0 -127 -2 -144 -21z m276 -49 l0 -30 -75 0
-75 0 0 30 0 30 75 0 75 0 0 -30z"/>
</g>
</svg>
